<?xml version="1.0" encoding="utf-8"?>
<!-- Generator: Adobe Illustrator 19.0.0, SVG Export Plug-In . SVG Version: 6.00 Build 0)  -->
<svg version="1.1" id="Capa_1" xmlns="http://www.w3.org/2000/svg" xmlns:xlink="http://www.w3.org/1999/xlink" x="0px" y="0px"
	 viewBox="122 -253.5 500 500" style="enable-background:new 122 -253.5 500 500;" xml:space="preserve">
<style type="text/css">
	.st0{fill:#795D4D;}
	.st1{fill:#4F7844;}
	.st2{fill:#FFFFFF;}
</style>
<g id="XMLID_440_">
	<g id="XMLID_461_">
		<path id="XMLID_478_" class="st0" d="M321.2-110.3c-18.3,18-36.2,35.6-54.2,53.2c1.1-5.3,43.9-64.4,53-73.8c5,4.4,9.9,8.9,15,13.1
			c1.1,0.9,3,1.5,4.3,1.3c41.8-5,83.7-10.1,125.5-15.2c1-0.2,2.8,0.6,3.1,1.3c12.3,24.1,24.4,48.2,36.5,72.3c0,0.1,0,0.2-0.2,1.3
			c-13.2-17.8-26-35.1-39-52.5c-2.7,3.5-5.3,6.9-7.9,10.3c-13.4,16.9-26.8,33.8-40.4,50.6c-0.8,1-2.6,1.7-3.9,1.7
			c-8.6,0.2-17.1,0.1-25.7,0.2c-2.4,0.1-4.1-0.7-5.7-2.4c-19.5-19.9-39.2-39.8-58.8-59.7C322.2-109,321.7-109.7,321.2-110.3z"/>
		<path id="XMLID_459_" class="st0" d="M338.5-76c-5.7,0.8-31.8,4.2-36.6,4.9c0,3.3-0.1,23.7-0.1,28.1c3.9,0.4,30.9,3.3,36.6,3.9
			C338.5-43.8,338.5-70.2,338.5-76z"/>
		<path id="XMLID_462_" class="st0" d="M478.4-67.1c-0.1-0.7-1-1.7-1.7-1.8c-3-0.6-6-0.9-9.1-1.3c0,0,0,0,0-0.1
			c-4.4-0.6-13.1-1.8-17.6-2.4c0,4,0,11.1,0,15.9l0,0c0,4.5,0,8.6,0,13.4c4.6-0.6,24.4-3.2,27.7-3.7c0.6-0.1,1.5-1.2,1.5-1.8
			C479.4-51.8,478.6-65.1,478.4-67.1z"/>
	</g>
	<path id="XMLID_460_" class="st1" d="M532.3-66.6c-2.4-18.6-7.8-36.6-16.9-53c-9-16.4-19.6-30.5-31.5-42.3
		c7.5,16,11.7,33.7,11.7,52.5c0,68.2-55.3,123.6-123.6,123.6S248.4-41.2,248.4-109.5c0-18.8,4.2-36.6,11.7-52.4
		c-5.4,5.3-10.5,10.9-15.3,17.1c-28.2,36.6-39.2,78-32.8,123.8c3.2,23,10.8,44.5,21.6,65c13.1,25,29.9,47.3,48.5,68.3
		c16.3,18.4,33.3,36.1,49.8,54.3c10.1,11.2,19.7,22.6,29.4,34.1c3.8,4.5,6.8,9.6,10.5,14.8c1.3-1.7,2.6-3.2,3.7-4.8
		c4.8-6.4,9.2-13.3,14.5-19.3c15.6-17.6,31.4-35.1,47.5-52.4c19.3-20.7,38-41.8,54.2-65c15.2-21.6,27.5-44.5,34.8-70.1
		C533.2-19,535.5-42.6,532.3-66.6z"/>
	<path id="XMLID_479_" class="st2" d="M273.9-64.1c0-70.7,57.3-128,128-128c29.1,0,55.8,9.7,77.4,26
		c-27.8-34.4-70.2-56.4-117.8-56.4c-83.5,0-151.2,67.7-151.2,151.2S277.9,79.9,361.5,79.9c28.4,0,55-7.9,77.8-21.5
		C427.5,62.1,415,64,402,64C331.3,64,273.9,6.7,273.9-64.1z"/>
</g>
</svg>
