<svg id="Capa_1" data-name="Capa 1" xmlns="http://www.w3.org/2000/svg" viewBox="0 0 700 700"><defs><style>.cls-1{fill:#ec652b;}.cls-2{fill:#fff;}</style></defs><circle class="cls-1" cx="350" cy="350" r="350"/><path class="cls-2" d="M537.33,416.46q-1.79-5.31-4-10.57a170.32,170.32,0,0,0-12.9-24.32,239.72,239.72,0,0,0-32.58-40.12l-.58-.59-27.08-27.08a57.79,57.79,0,0,0-81.73,0l-28.83,28.83-23.07,23.08L259.3,432.92l-23.61,23.61,15.81,15.81,10.05,10.05,54.24,54.24,4.4,4.41c53.82,53.82,126.88,57.71,181.43,3.16A160.49,160.49,0,0,0,529.37,508c12.78-23.3,16.56-47,13.09-70.32A123.68,123.68,0,0,0,537.33,416.46Z" transform="translate(0 0)"/><path class="cls-2" d="M436.23,192.14h-.64a6,6,0,0,0-6,6v28.56a6,6,0,0,0,6,6h0c14.28,0,28.56-2.22,28.56-20,0-13.85-7.37-18.53-17.38-20A72.53,72.53,0,0,0,436.23,192.14Z" transform="translate(0 0)"/><path class="cls-2" d="M558.71,225.27A75.21,75.21,0,0,0,546,217.68q0,3.7-.29,7.65c-1.92,23.58-10.41,35.34-28,42.38a123.11,123.11,0,0,1,37.59,37.06,163.12,163.12,0,0,0,23-22.5,26.65,26.65,0,0,0,3.27-29.46C576.83,243.77,569.58,233.26,558.71,225.27Z" transform="translate(0 0)"/><path class="cls-2" d="M440,116.7H300.91a3.74,3.74,0,0,0-2.11,6.83,66.88,66.88,0,0,1,21.09,22.89,64.28,64.28,0,0,1,6.1,15.52V286.5a65.22,65.22,0,0,1-19.13,46.15L294.1,345.41l-61.82,61.82-35.55,35.55-.06,0-81.18,81.18.18.18a90.66,90.66,0,0,0,128.22,0h0l8.16-8.16c.59-.52,1.18-1.07,1.75-1.64h0L261,507.1l-.05-.06,0,0L210.5,456.56l19.38-19.38L324.05,343h0a69.72,69.72,0,0,0,20.72-49.6V189.51a53.4,53.4,0,0,1,53.41-53.4h60.59c29.11,0,56,6.13,75.69,20.34C515.77,128.27,480,116.7,440,116.7Z" transform="translate(0 0)"/></svg>